<svg width="1161" height="1080" viewBox="0 0 1161 1080" fill="none" xmlns="http://www.w3.org/2000/svg">
    <path opacity="0.0526316" d="M-573.733 319.626C-585.283 369.388 -574.564 488.46 -439.295 566.654C-270.209 664.397 -89.1604 605.143 86.3702 671.72C215.925 720.859 502.584 904.473 536.732 1119.73" stroke="white" stroke-opacity="0.15"/>
    <path opacity="0.105263" d="M-527.618 241.402C-544.305 289.685 -546.092 409.225 -419.738 501.131C-261.794 616.012 -75.5442 576.008 92.0657 660.568C215.774 722.979 481.67 935.552 493.132 1153.19" stroke="white" stroke-opacity="0.15"/>
    <path opacity="0.157895" d="M-475.861 168.109C-497.504 214.383 -511.776 333.082 -395.721 437.691C-250.651 568.453 -61.2398 548.136 96.613 649.753C213.12 724.753 455.339 963.955 443.988 1181.6" stroke="white" stroke-opacity="0.15"/>
    <path opacity="0.210526" d="M-419.005 100.306C-445.367 144.063 -471.968 260.62 -367.483 376.788C-236.877 521.997 -46.379 521.59 99.9873 639.151C208.016 725.919 423.905 989.129 389.866 1204.4" stroke="white" stroke-opacity="0.15"/>
    <path opacity="0.263158" d="M-357.655 38.4977C-388.446 79.2601 -427.085 192.398 -335.315 318.851C-220.602 476.917 -31.1059 496.425 102.17 628.64C200.538 726.225 387.731 1010.56 331.377 1221.09" stroke="white" stroke-opacity="0.15"/>
    <path opacity="0.315789" d="M-292.459 -16.8789C-327.342 20.4417 -377.596 128.921 -299.546 264.274C-201.984 433.464 -15.5651 472.673 103.161 618.096C190.789 725.428 347.236 1027.77 269.183 1231.26" stroke="white" stroke-opacity="0.15"/>
    <path opacity="0.368421" d="M-224.112 -65.4595C-262.705 -31.9896 -324.022 70.6426 -260.549 213.412C-181.207 391.874 0.0928213 450.354 102.967 607.39C178.896 723.294 302.883 1040.34 203.987 1234.55" stroke="white" stroke-opacity="0.15"/>
    <path opacity="0.421053" d="M-153.342 -106.949C-195.222 -77.6961 -266.931 17.9643 -218.729 166.586C-158.476 352.364 15.7177 429.475 101.614 596.404C165.012 719.61 255.179 1047.87 136.524 1230.69" stroke="white" stroke-opacity="0.15"/>
    <path opacity="0.473684" d="M-80.9035 -141.133C-125.612 -116.418 -206.928 -28.7777 -174.525 124.069C-134.021 315.127 31.1581 410.024 99.1349 585.017C149.307 714.175 204.667 1050.07 67.5534 1219.48" stroke="white" stroke-opacity="0.15"/>
    <path opacity="0.526316" d="M-7.56747 -167.88C-54.6144 -147.974 -144.646 -69.3135 -128.397 86.0827C-108.086 280.328 46.2686 391.971 95.5813 573.111C131.978 706.806 151.925 1046.64 -2.14609 1200.79" stroke="white" stroke-opacity="0.15"/>
    <path opacity="0.578947" d="M65.8825 -187.134C17.0126 -172.255 -80.748 -103.436 -80.8316 52.8072C-80.936 248.111 60.9034 375.277 91.0116 560.579C113.234 697.346 97.5485 1037.41 -71.7911 1174.61" stroke="white" stroke-opacity="0.15"/>
    <path opacity="0.631579" d="M138.661 -198.926C88.5038 -189.236 -15.9148 -131.013 -32.3298 24.3657C-52.8485 218.589 74.9215 359.884 85.4954 547.319C93.2997 685.659 42.1544 1022.22 -140.599 1140.97" stroke="white" stroke-opacity="0.15"/>
    <path opacity="0.684211" d="M209.994 -203.366C159.099 -198.972 49.1663 -151.983 16.5998 0.828917C-24.1084 191.844 88.1922 345.72 79.116 533.233C72.417 671.632 -13.6281 1001 -207.793 1099.99" stroke="white" stroke-opacity="0.15"/>
    <path opacity="0.736842" d="M279.121 -200.646C228.045 -201.596 113.803 -166.355 65.4418 -17.785C4.99017 167.928 100.591 332.701 71.9641 518.238C50.8353 655.178 -69.1669 973.748 -272.615 1051.9" stroke="white" stroke-opacity="0.15"/>
    <path opacity="0.789474" d="M345.304 -191.033C294.607 -197.317 177.307 -174.211 113.681 -31.5095C34.1481 146.867 112.002 320.73 64.1379 502.258C28.8107 636.24 -123.834 940.521 -334.337 996.983" stroke="white" stroke-opacity="0.15"/>
    <path opacity="0.842105" d="M407.84 -174.878C358.078 -186.427 239.005 -175.708 160.811 -40.4393C63.0685 128.647 122.322 309.695 55.7455 485.226C6.60693 614.781 -177.007 901.44 -392.26 935.588" stroke="white" stroke-opacity="0.15"/>
    <path opacity="0.894737" d="M466.064 -152.594C417.781 -169.281 298.241 -171.068 206.335 -44.7134C91.4539 113.23 131.458 299.48 46.8984 467.09C-15.5132 590.799 -228.086 856.694 -445.728 868.156" stroke="white" stroke-opacity="0.15"/>
    <path opacity="0.947368" d="M519.359 -124.666C473.086 -146.309 354.386 -160.582 249.777 -44.526C119.015 100.543 139.332 289.955 37.7155 447.808C-37.2852 564.315 -276.487 806.534 -494.135 795.183" stroke="white" stroke-opacity="0.15"/>
    <path d="M567.164 -91.6406C523.406 -118.002 406.849 -144.603 290.682 -40.1183C145.473 90.4881 145.879 280.986 28.3192 427.352C-58.449 535.381 -321.659 751.27 -536.929 717.231" stroke="white" stroke-opacity="0.15"/>
</svg>
