<svg width="320" height="568" viewBox="0 0 320 568" fill="none" xmlns="http://www.w3.org/2000/svg">
    <path opacity="0.0526316" d="M613.331 214.821C610.51 191.61 587.262 142.073 516.842 129.612C428.816 114.037 360.218 167.861 274.299 166.7C210.883 165.842 58.8466 131.735 10.4672 44.4957" stroke="white" stroke-opacity="0.15" stroke-width="0.5"/>
    <path opacity="0.105263" d="M605.74 255.685C605.36 232.306 587.418 180.609 518.685 160.856C432.77 136.165 358.922 182.524 273.594 172.388C210.616 164.906 62.9774 115.093 23.982 23.2755" stroke="white" stroke-opacity="0.15" stroke-width="0.5"/>
    <path opacity="0.157895" d="M594.951 295.311C597.017 272.02 584.577 218.731 518.286 191.902C435.422 158.366 357.132 196.751 273.332 177.751C211.481 163.728 69.8577 98.7556 40.6734 3.36446" stroke="white" stroke-opacity="0.15" stroke-width="0.5"/>
    <path opacity="0.210526" d="M581.108 333.373C585.598 310.426 578.796 256.129 515.672 222.517C436.768 180.503 354.895 210.495 273.539 182.84C213.493 162.428 79.4372 83.0076 60.384 -14.9116" stroke="white" stroke-opacity="0.15" stroke-width="0.5"/>
    <path opacity="0.263158" d="M564.394 369.561C571.258 347.209 570.169 292.498 510.904 252.472C436.824 202.44 352.265 223.71 274.246 187.702C216.662 161.126 91.642 68.1277 82.9284 -31.2466" stroke="white" stroke-opacity="0.15" stroke-width="0.5"/>
    <path opacity="0.315789" d="M545.02 403.584C554.183 382.071 558.818 327.547 504.062 281.545C435.617 224.044 349.298 236.358 275.47 192.392C220.98 159.942 106.366 54.3859 108.088 -45.3549" stroke="white" stroke-opacity="0.15" stroke-width="0.5"/>
    <path opacity="0.368421" d="M523.227 435.177C534.587 414.74 544.897 360.999 495.249 309.526C433.19 245.185 346.056 248.409 277.229 196.967C226.429 158.999 123.476 42.0402 135.614 -56.9742" stroke="white" stroke-opacity="0.15" stroke-width="0.5"/>
    <path opacity="0.421053" d="M499.281 464.099C512.716 444.962 528.587 392.593 484.592 336.212C429.598 265.737 342.604 259.835 279.531 201.48C232.978 158.41 142.815 31.3309 165.236 -65.8724" stroke="white" stroke-opacity="0.15" stroke-width="0.5"/>
    <path opacity="0.473684" d="M473.475 490.141C488.836 472.513 510.094 422.089 472.233 361.419C424.907 285.581 339.007 270.618 282.379 205.99C240.583 158.29 164.198 22.4822 196.656 -71.8449" stroke="white" stroke-opacity="0.15" stroke-width="0.5"/>
    <path opacity="0.526316" d="M446.118 513.124C463.238 497.198 489.65 449.273 458.339 384.977C419.199 304.608 335.334 280.748 285.771 210.555C249.19 158.747 187.419 15.6988 229.56 -74.7187" stroke="white" stroke-opacity="0.15" stroke-width="0.5"/>
    <path opacity="0.578947" d="M417.54 532.902C436.231 518.853 467.508 473.951 443.088 406.734C412.564 322.714 331.652 290.219 289.698 215.23C258.733 159.882 212.253 11.1603 263.614 -74.357" stroke="white" stroke-opacity="0.15" stroke-width="0.5"/>
    <path opacity="0.631579" d="M388.082 549.365C408.139 537.346 443.938 495.96 426.678 426.559C405.104 339.809 328.032 299.034 294.146 220.07C269.136 161.788 238.456 9.02309 298.475 -70.657" stroke="white" stroke-opacity="0.15" stroke-width="0.5"/>
    <path opacity="0.684211" d="M358.095 562.44C379.298 552.584 419.227 515.166 409.316 444.341C396.928 355.811 324.54 307.203 299.094 225.13C280.313 164.553 265.77 9.41791 333.789 -63.552" stroke="white" stroke-opacity="0.15" stroke-width="0.5"/>
    <path opacity="0.736842" d="M327.937 572.089C350.055 564.504 393.676 531.465 391.223 459.992C388.156 370.652 321.246 314.744 304.519 230.46C292.172 168.253 293.925 12.4468 369.198 -53.0134" stroke="white" stroke-opacity="0.15" stroke-width="0.5"/>
    <path opacity="0.789474" d="M297.966 578.314C320.755 573.082 367.591 544.783 372.622 473.446C378.911 384.274 318.211 321.679 310.385 236.108C304.609 172.951 322.638 18.1819 404.342 -39.0514" stroke="white" stroke-opacity="0.15" stroke-width="0.5"/>
    <path opacity="0.842105" d="M268.539 581.153C291.75 578.332 341.288 555.084 353.748 484.664C369.323 396.638 315.499 328.04 316.661 242.12C317.518 178.705 351.626 26.6686 438.865 -21.7108" stroke="white" stroke-opacity="0.15" stroke-width="0.5"/>
    <path opacity="0.894737" d="M240.008 580.682C263.387 580.302 315.084 562.36 334.836 493.628C359.528 407.712 313.169 333.864 323.305 248.537C330.786 185.558 380.599 37.9197 472.417 -1.07571" stroke="white" stroke-opacity="0.15" stroke-width="0.5"/>
    <path opacity="0.947368" d="M212.714 577.012C236.004 579.078 289.293 566.638 316.122 500.347C349.658 417.483 311.273 339.193 330.273 255.393C344.296 193.542 409.269 51.9186 504.66 22.7344" stroke="white" stroke-opacity="0.15" stroke-width="0.5"/>
    <path d="M186.983 570.289C209.93 574.779 264.227 567.977 297.838 504.853C339.853 425.949 309.861 344.076 337.516 262.72C357.928 202.674 437.348 68.6181 535.267 49.5649" stroke="white" stroke-opacity="0.15" stroke-width="0.5"/>
</svg>
