<svg width="320" height="568" viewBox="0 0 320 568" fill="none" xmlns="http://www.w3.org/2000/svg">
    <path opacity="0.0526316" d="M-348.078 474.272C-357.241 452.76 -361.876 398.235 -307.12 352.234C-238.675 294.732 -152.356 307.046 -78.5283 263.081C-24.0379 230.631 90.5761 125.074 88.8544 25.3333" stroke="white" stroke-opacity="0.15" stroke-width="0.5"/>
    <path opacity="0.105263" d="M-321.072 505.864C-332.433 485.428 -342.743 431.686 -293.095 380.213C-231.036 315.873 -143.902 319.096 -75.0742 267.654C-24.2743 229.686 78.6781 112.728 66.5402 13.7133" stroke="white" stroke-opacity="0.15" stroke-width="0.5"/>
    <path opacity="0.157895" d="M-291.916 534.787C-305.351 515.65 -321.221 463.281 -277.226 406.9C-222.232 336.425 -135.239 330.523 -72.1651 272.168C-25.6122 229.098 64.5507 102.019 42.1294 4.81563" stroke="white" stroke-opacity="0.15" stroke-width="0.5"/>
    <path opacity="0.210526" d="M-260.897 560.829C-276.258 543.201 -297.516 492.777 -259.655 432.107C-212.329 356.269 -126.429 341.306 -69.8009 276.678C-28.005 228.978 48.3805 93.1704 15.9216 -1.15672" stroke="white" stroke-opacity="0.15" stroke-width="0.5"/>
    <path opacity="0.263158" d="M-228.328 583.811C-245.448 567.886 -271.86 519.96 -240.549 455.665C-201.409 375.296 -117.544 351.436 -67.9812 281.243C-31.4004 229.435 30.371 86.3866 -11.77 -4.03093" stroke="white" stroke-opacity="0.15" stroke-width="0.5"/>
    <path opacity="0.315789" d="M-194.538 603.589C-213.229 589.54 -244.506 544.638 -220.087 477.422C-189.562 393.402 -108.65 360.906 -66.6966 285.917C-35.7315 230.569 10.7488 81.8476 -40.6126 -3.66967" stroke="white" stroke-opacity="0.15" stroke-width="0.5"/>
    <path opacity="0.368421" d="M-159.868 620.053C-179.925 608.034 -215.724 566.648 -198.464 497.247C-176.89 410.497 -99.8177 369.722 -65.9322 290.758C-40.9222 232.476 -10.2421 79.7111 -70.2611 0.03106" stroke="white" stroke-opacity="0.15" stroke-width="0.5"/>
    <path opacity="0.578947" d="M-19.4778 651.841C-42.6891 649.02 -92.2268 625.772 -104.687 555.352C-120.262 467.326 -66.4382 398.728 -67.5997 312.809C-68.4571 249.393 -102.565 97.3566 -189.804 48.9772" stroke="white" stroke-opacity="0.15" stroke-width="0.5"/>
    <path opacity="0.631579" d="M14.2649 651.37C-9.11411 650.99 -60.8104 633.048 -80.5633 564.315C-105.254 478.4 -58.8957 404.552 -69.0319 319.224C-76.5132 256.246 -126.326 108.608 -218.144 69.6121" stroke="white" stroke-opacity="0.15" stroke-width="0.5"/>
    <path opacity="0.684211" d="M46.7721 647.699C23.4814 649.766 -29.8072 637.325 -56.6364 571.034C-90.1729 488.17 -51.7873 409.881 -70.7872 326.08C-84.8105 264.229 -149.783 122.606 -245.174 93.422" stroke="white" stroke-opacity="0.15" stroke-width="0.5"/>
    <path opacity="0.736842" d="M77.7142 640.978C54.7671 645.467 0.470055 638.665 -33.1415 575.542C-75.1559 496.637 -45.1641 414.764 -72.8194 333.409C-93.2311 273.362 -172.651 139.307 -270.57 120.253" stroke="white" stroke-opacity="0.15" stroke-width="0.5"/>
    <path opacity="0.789474" d="M106.783 631.382C84.4306 638.246 29.72 637.157 -10.3056 577.892C-60.3376 503.812 -39.0682 419.252 -75.0759 341.233C-101.652 283.65 -194.65 158.63 -294.025 149.916" stroke="white" stroke-opacity="0.15" stroke-width="0.5"/>
    <path opacity="0.842105" d="M133.686 619.128C112.174 628.29 57.6495 632.926 11.6483 578.17C-45.8532 509.725 -33.5391 423.406 -77.5048 349.578C-109.955 295.088 -215.511 180.474 -315.252 182.195" stroke="white" stroke-opacity="0.15" stroke-width="0.5"/>
    <path opacity="0.894737" d="M158.159 604.455C137.722 615.815 83.981 626.125 32.5083 576.477C-31.8326 514.418 -28.6088 427.284 -80.0508 358.457C-118.019 307.657 -234.978 204.704 -333.992 216.842" stroke="white" stroke-opacity="0.15" stroke-width="0.5"/>
    <path opacity="0.947368" d="M179.962 587.629C160.825 601.063 108.455 616.934 52.075 572.939C-18.4004 517.945 -24.3022 430.951 -82.6569 367.878C-125.727 321.325 -252.806 231.162 -350.01 253.583" stroke="white" stroke-opacity="0.15" stroke-width="0.5"/>
    <path d="M198.884 568.941C181.256 584.303 130.833 605.561 70.1624 567.7C-5.67544 520.374 -20.6382 434.474 -85.2661 377.846C-132.966 336.05 -268.774 259.664 -363.101 292.123" stroke="white" stroke-opacity="0.15" stroke-width="0.5"/>
</svg>
