<svg width="1126" height="1080" viewBox="0 0 1126 1080" fill="none" xmlns="http://www.w3.org/2000/svg">
    <path opacity="0.0526316" d="M1731.07 301.312C1724.9 250.6 1674.11 142.371 1520.26 115.149C1327.94 81.1201 1178.07 198.714 990.357 196.176C851.809 194.303 519.642 119.785 413.944 -70.8124" stroke="white" stroke-opacity="0.15"/>
    <path opacity="0.105263" d="M1714.48 390.589C1713.65 339.511 1674.45 226.566 1524.29 183.41C1336.58 129.465 1175.24 230.749 988.818 208.604C851.225 192.259 528.667 83.4283 443.471 -117.174" stroke="white" stroke-opacity="0.15"/>
    <path opacity="0.157895" d="M1690.91 477.163C1695.42 426.278 1668.25 309.854 1523.41 251.238C1342.37 177.968 1171.33 261.832 988.244 220.322C853.113 189.684 543.698 47.7331 479.937 -160.675" stroke="white" stroke-opacity="0.15"/>
    <path opacity="0.210526" d="M1660.67 560.321C1670.48 510.187 1655.62 391.56 1517.7 318.126C1345.32 226.334 1166.44 291.859 988.698 231.438C857.51 186.843 564.628 13.3276 523.001 -200.604" stroke="white" stroke-opacity="0.15"/>
    <path opacity="0.263158" d="M1624.15 639.382C1639.15 590.548 1636.77 471.018 1507.29 383.57C1345.44 274.262 1160.7 320.731 990.241 242.062C864.433 183.998 591.293 -19.1817 572.256 -236.293" stroke="white" stroke-opacity="0.15"/>
    <path opacity="0.315789" d="M1581.82 713.715C1601.84 666.716 1611.97 547.591 1492.34 447.089C1342.8 321.461 1154.21 348.364 992.917 252.309C873.867 181.413 623.461 -49.2045 627.222 -267.116" stroke="white" stroke-opacity="0.15"/>
    <path opacity="0.368421" d="M1534.21 782.739C1559.03 738.09 1581.56 620.676 1473.09 508.22C1337.5 367.649 1147.13 374.693 996.759 262.303C885.772 179.352 660.844 -76.1773 687.363 -292.502" stroke="white" stroke-opacity="0.15"/>
    <path opacity="0.421053" d="M1481.89 845.928C1511.25 804.117 1545.92 689.702 1449.8 566.523C1329.65 412.55 1139.59 399.656 1001.79 272.164C900.08 178.065 703.094 -99.5752 752.079 -311.943" stroke="white" stroke-opacity="0.15"/>
    <path opacity="0.473684" d="M1425.51 902.822C1459.07 864.309 1505.52 754.145 1422.8 621.594C1319.4 455.905 1131.73 423.215 1008.01 282.017C916.696 177.803 749.811 -118.908 820.727 -324.991" stroke="white" stroke-opacity="0.15"/>
    <path opacity="0.526316" d="M1365.74 953.036C1403.15 918.241 1460.85 813.535 1392.44 673.064C1306.93 497.475 1123.71 445.347 1015.42 291.99C935.501 178.802 800.544 -133.727 892.613 -331.27" stroke="white" stroke-opacity="0.15"/>
    <path opacity="0.578947" d="M1303.31 996.246C1344.14 965.552 1412.48 867.452 1359.12 720.599C1292.44 537.034 1115.66 466.038 1024 302.203C956.35 181.281 854.8 -143.643 967.014 -330.479" stroke="white" stroke-opacity="0.15"/>
    <path opacity="0.631579" d="M1238.95 1032.21C1282.77 1005.96 1360.98 915.537 1323.27 763.912C1276.14 574.381 1107.75 485.297 1033.72 312.778C979.078 185.447 912.049 -148.312 1043.18 -322.395" stroke="white" stroke-opacity="0.15"/>
    <path opacity="0.684211" d="M1173.43 1060.78C1219.76 1039.25 1306.99 957.498 1285.34 802.762C1258.28 609.342 1100.12 503.145 1044.53 323.833C1003.5 191.487 971.724 -147.45 1120.33 -306.873" stroke="white" stroke-opacity="0.15"/>
    <path opacity="0.736842" d="M1107.54 1081.86C1155.87 1065.29 1251.17 993.107 1245.81 836.956C1239.11 641.766 1092.93 519.62 1056.38 335.479C1029.41 199.569 1033.23 -140.832 1197.69 -283.848" stroke="white" stroke-opacity="0.15"/>
    <path opacity="0.789474" d="M1042.06 1095.46C1091.85 1084.03 1194.18 1022.21 1205.17 866.349C1218.91 671.529 1086.3 534.771 1069.2 347.818C1056.58 209.834 1095.97 -128.303 1274.47 -253.345" stroke="white" stroke-opacity="0.15"/>
    <path opacity="0.842105" d="M977.774 1101.67C1028.49 1095.5 1136.71 1044.71 1163.94 890.857C1197.97 698.54 1080.37 548.669 1082.91 360.954C1084.78 222.406 1159.3 -109.761 1349.9 -215.459" stroke="white" stroke-opacity="0.15"/>
    <path opacity="0.894737" d="M915.44 1100.64C966.518 1099.81 1079.46 1060.61 1122.62 910.441C1176.56 722.735 1075.28 561.393 1097.43 374.971C1113.77 237.378 1222.6 -85.1798 1423.2 -170.376" stroke="white" stroke-opacity="0.15"/>
    <path opacity="0.947368" d="M855.807 1092.62C906.692 1097.13 1023.12 1069.95 1081.73 925.121C1155 744.081 1071.14 573.037 1112.65 389.951C1143.29 254.82 1285.24 -54.595 1493.65 -118.356" stroke="white" stroke-opacity="0.15"/>
    <path d="M799.591 1077.93C849.725 1087.74 968.352 1072.88 1041.79 934.967C1133.58 762.578 1068.05 583.704 1128.47 405.96C1173.07 274.772 1346.58 -18.1102 1560.52 -59.7374" stroke="white" stroke-opacity="0.15"/>
</svg>
