<svg width="96" height="58" viewBox="0 0 96 58" fill="none" xmlns="http://www.w3.org/2000/svg">
    <circle cx="81.2" cy="14.5" r="13" stroke="#E93095" stroke-width="3"/>
    <path fill-rule="evenodd" clip-rule="evenodd" d="M68.6399 7.25H18.4509V8.74265C18.4509 12.4262 20.4645 15.867 23.707 17.7233L49.6105 32.5543C50.3074 32.9537 51.104 33.165 51.9124 33.165H51.9451C52.7535 33.165 53.55 32.9537 54.2455 32.555L58.1246 30.334C58.1304 30.3305 58.1359 30.3274 58.1416 30.3242L58.1508 30.3191L69.9028 23.5905C67.8994 21.1038 66.7001 17.942 66.7001 14.5C66.7001 11.8589 67.4062 9.38276 68.6399 7.25ZM88.4498 27.0603C86.3171 28.2939 83.8411 29 81.2001 29C77.7536 29 74.5879 27.7975 72.0997 25.7893L61.7177 31.7335L88.4498 50.6294V27.0603ZM42.1403 31.7293L22.1753 20.2957C18.0058 17.9075 15.4036 13.4892 15.4036 8.74265V25.1618H6.95474C6.11363 25.1618 5.43302 25.8301 5.43302 26.6544C5.43302 27.4787 6.11363 28.147 6.95474 28.147H15.4036H21.209H25.7818C28.2926 28.147 30.3469 30.1621 30.3469 32.625C30.3469 35.0878 28.2926 37.1029 25.7818 37.1029H24.2524H15.4036H5.43302C4.59191 37.1029 3.9113 37.7713 3.9113 38.5956C3.9113 39.4199 4.59191 40.0882 5.43302 40.0882H15.4036V50.6263L42.1403 31.7293ZM51.9451 36.1504C53.2929 36.1504 54.62 35.7983 55.7806 35.1329L58.8407 33.3808L88.45 54.3105V56.5074C88.45 57.3317 87.7694 58 86.9283 58H16.9291C16.088 58 15.4074 57.3317 15.4074 56.5074V54.3106L45.0161 33.3806L48.0754 35.1322C49.2375 35.7983 50.5645 36.1504 51.9243 36.1504H51.9451ZM27.2959 32.625C27.2959 31.8007 26.6152 31.1323 25.7741 31.1323H1.52172C0.680613 31.1323 0 31.8007 0 32.625C0 33.4493 0.680613 34.1176 1.52172 34.1176H25.7741C26.6152 34.1176 27.2959 33.4493 27.2959 32.625Z" fill="white"/>
    <path d="M87.725 10.1501L79.75 18.1251L76.125 14.5001" stroke="#E93095" stroke-width="4" stroke-linecap="round" stroke-linejoin="round"/>
</svg>
