<svg xmlns="http://www.w3.org/2000/svg" display="none">

    <symbol id="fb" viewBox="0 0 30 30">
        <path d="M16.25 24.9225C18.7716 24.6016 21.0764 23.3327 22.696 21.3735C24.3156 19.4143 25.1284 16.9119 24.9692 14.375C24.81 11.838 23.6908 9.45686 21.8391 7.71547C19.9873 5.97409 17.5419 5.00315 15 5C12.4549 4.9981 10.0049 5.96667 8.14917 7.70835C6.29341 9.45002 5.17155 11.8337 5.01218 14.3738C4.85281 16.9139 5.66792 19.4191 7.29143 21.3791C8.91494 23.3391 11.2247 24.6063 13.75 24.9225V17.5H11.25V15H13.75V12.9325C13.75 11.2612 13.925 10.655 14.25 10.0437C14.5701 9.43898 15.065 8.94461 15.67 8.625C16.1475 8.36875 16.7412 8.215 17.7787 8.14875C18.19 8.1225 18.7225 8.155 19.3763 8.24875V10.6237H18.75C17.6038 10.6237 17.13 10.6775 16.8475 10.8288C16.6789 10.9154 16.5417 11.0527 16.455 11.2213C16.305 11.5038 16.25 11.7838 16.25 12.9313V15H19.375L18.75 17.5H16.25V24.9225ZM15 27.5C8.09625 27.5 2.5 21.9037 2.5 15C2.5 8.09625 8.09625 2.5 15 2.5C21.9037 2.5 27.5 8.09625 27.5 15C27.5 21.9037 21.9037 27.5 15 27.5Z"/>
    </symbol>


    <symbol id="whatsapp" viewBox="0 0 30 30">
        <path d="M9.06625 23.1175L9.97125 23.6462C11.4974 24.5363 13.2332 25.0036 15 25C16.9778 25 18.9112 24.4135 20.5557 23.3147C22.2002 22.2159 23.4819 20.6541 24.2388 18.8268C24.9957 16.9996 25.1937 14.9889 24.8079 13.0491C24.422 11.1093 23.4696 9.32746 22.0711 7.92893C20.6725 6.53041 18.8907 5.578 16.9509 5.19215C15.0111 4.8063 13.0004 5.00433 11.1732 5.7612C9.34591 6.51808 7.78412 7.79981 6.68531 9.4443C5.58649 11.0888 5 13.0222 5 15C5 16.795 5.47125 18.5163 6.355 20.03L6.8825 20.935L6.06625 23.9363L9.06625 23.1175ZM2.505 27.5L4.195 21.29C3.08142 19.3811 2.49637 17.21 2.5 15C2.5 8.09625 8.09625 2.5 15 2.5C21.9038 2.5 27.5 8.09625 27.5 15C27.5 21.9037 21.9038 27.5 15 27.5C12.791 27.5036 10.6208 26.919 8.7125 25.8063L2.505 27.5ZM10.4888 9.135C10.6563 9.1225 10.825 9.1225 10.9925 9.13C11.06 9.135 11.1275 9.1425 11.195 9.15C11.3938 9.1725 11.6125 9.29375 11.6863 9.46125C12.0588 10.3062 12.4213 11.1575 12.7713 12.0113C12.8488 12.2013 12.8025 12.445 12.655 12.6825C12.5536 12.8431 12.4438 12.9983 12.3263 13.1475C12.185 13.3287 11.8813 13.6612 11.8813 13.6612C11.8813 13.6612 11.7575 13.8088 11.805 13.9925C11.8225 14.0625 11.88 14.1638 11.9325 14.2488L12.0063 14.3675C12.3263 14.9013 12.7563 15.4425 13.2813 15.9525C13.4313 16.0975 13.5775 16.2462 13.735 16.385C14.32 16.9012 14.9825 17.3225 15.6975 17.635L15.7038 17.6375C15.81 17.6837 15.8638 17.7088 16.0188 17.775C16.0963 17.8075 16.1763 17.8363 16.2575 17.8575C16.3415 17.8789 16.4299 17.8749 16.5116 17.8459C16.5932 17.817 16.6645 17.7645 16.7163 17.695C17.6213 16.5988 17.7038 16.5275 17.7113 16.5275V16.53C17.7741 16.4714 17.8488 16.4269 17.9303 16.3995C18.0118 16.3721 18.0982 16.3625 18.1838 16.3713C18.2588 16.3763 18.335 16.39 18.405 16.4213C19.0688 16.725 20.155 17.1987 20.155 17.1987L20.8825 17.525C21.005 17.5838 21.1163 17.7225 21.12 17.8562C21.125 17.94 21.1325 18.075 21.1038 18.3225C21.0638 18.6462 20.9663 19.035 20.8688 19.2387C20.802 19.3778 20.7134 19.5052 20.6063 19.6162C20.4801 19.7487 20.342 19.8692 20.1938 19.9762C20.1425 20.0148 20.0904 20.0523 20.0375 20.0887C19.882 20.1874 19.7223 20.2791 19.5588 20.3638C19.2369 20.5347 18.8815 20.6328 18.5175 20.6512C18.2863 20.6637 18.055 20.6812 17.8225 20.6687C17.8125 20.6687 17.1125 20.56 17.1125 20.56C15.3353 20.0925 13.6917 19.2168 12.3125 18.0025C12.03 17.7538 11.7688 17.4863 11.5013 17.22C10.3888 16.1138 9.54875 14.92 9.03875 13.7925C8.77771 13.2391 8.63671 12.6368 8.625 12.025C8.61985 11.2661 8.86794 10.5271 9.33 9.925C9.42125 9.8075 9.5075 9.685 9.65625 9.54375C9.815 9.39375 9.915 9.31375 10.0238 9.25875C10.1683 9.18629 10.3261 9.14377 10.4875 9.13375L10.4888 9.135Z"/>
    </symbol>

    <symbol id="twitter" viewBox="0 0 30 30">
        <path d="M19.125 6.93751C18.175 6.93735 17.2628 7.31016 16.5849 7.97571C15.9069 8.64127 15.5174 9.54637 15.5 10.4963L15.465 12.465C15.4629 12.5707 15.4386 12.6748 15.3935 12.7704C15.3484 12.866 15.2836 12.951 15.2033 13.0199C15.123 13.0887 15.0291 13.1397 14.9277 13.1697C14.8264 13.1997 14.7198 13.2079 14.615 13.1938L12.6637 12.9288C10.0962 12.5788 7.63624 11.3963 5.27624 9.43001C4.52874 13.5675 5.98874 16.4338 9.50499 18.645L11.6887 20.0175C11.7925 20.0827 11.8787 20.1723 11.9398 20.2786C12.0009 20.3848 12.035 20.5044 12.0392 20.6269C12.0434 20.7493 12.0176 20.871 11.9639 20.9811C11.9102 21.0913 11.8303 21.1866 11.7312 21.2588L9.74124 22.7125C10.925 22.7863 12.0487 22.7338 12.9812 22.5488C18.8787 21.3713 22.8 16.9338 22.8 9.61376C22.8 9.01626 21.535 6.93751 19.125 6.93751V6.93751ZM13 10.45C13.0218 9.24507 13.3986 8.07334 14.0832 7.08153C14.7678 6.08972 15.7297 5.32191 16.8486 4.87421C17.9675 4.42652 19.1936 4.31886 20.3734 4.56469C21.5532 4.81052 22.6343 5.39894 23.4812 6.25626C24.37 6.25001 25.1262 6.47501 26.8175 5.45001C26.3987 7.50001 26.1925 8.39001 25.3 9.61376C25.3 19.1663 19.4287 23.8113 13.4712 25C9.38624 25.815 3.44624 24.4763 1.74374 22.6988C2.61124 22.6313 6.13624 22.2525 8.17374 20.7613C6.44999 19.625 -0.411256 15.5875 4.09749 4.73251C6.21374 7.20376 8.35999 8.88626 10.535 9.77876C11.9825 10.3725 12.3375 10.36 13.0012 10.4513L13 10.45Z"/>
    </symbol>

    <symbol id="instagram" viewBox="0 0 30 30">
        <path d="M15 11.25C14.0054 11.25 13.0516 11.6451 12.3483 12.3483C11.6451 13.0516 11.25 14.0054 11.25 15C11.25 15.9946 11.6451 16.9484 12.3483 17.6517C13.0516 18.3549 14.0054 18.75 15 18.75C15.9946 18.75 16.9484 18.3549 17.6517 17.6517C18.3549 16.9484 18.75 15.9946 18.75 15C18.75 14.0054 18.3549 13.0516 17.6517 12.3483C16.9484 11.6451 15.9946 11.25 15 11.25ZM15 8.75C16.6576 8.75 18.2473 9.40848 19.4194 10.5806C20.5915 11.7527 21.25 13.3424 21.25 15C21.25 16.6576 20.5915 18.2473 19.4194 19.4194C18.2473 20.5915 16.6576 21.25 15 21.25C13.3424 21.25 11.7527 20.5915 10.5806 19.4194C9.40848 18.2473 8.75 16.6576 8.75 15C8.75 13.3424 9.40848 11.7527 10.5806 10.5806C11.7527 9.40848 13.3424 8.75 15 8.75ZM23.125 8.4375C23.125 8.8519 22.9604 9.24933 22.6674 9.54235C22.3743 9.83538 21.9769 10 21.5625 10C21.1481 10 20.7507 9.83538 20.4576 9.54235C20.1646 9.24933 20 8.8519 20 8.4375C20 8.0231 20.1646 7.62567 20.4576 7.33265C20.7507 7.03962 21.1481 6.875 21.5625 6.875C21.9769 6.875 22.3743 7.03962 22.6674 7.33265C22.9604 7.62567 23.125 8.0231 23.125 8.4375ZM15 5C11.9075 5 11.4025 5.00875 9.96375 5.0725C8.98375 5.11875 8.32625 5.25 7.71625 5.4875C7.17375 5.6975 6.7825 5.94875 6.36625 6.36625C5.97501 6.74425 5.67419 7.20573 5.48625 7.71625C5.24875 8.32875 5.1175 8.985 5.0725 9.96375C5.0075 11.3438 5 11.8263 5 15C5 18.0925 5.00875 18.5975 5.0725 20.0362C5.11875 21.015 5.25 21.6737 5.48625 22.2825C5.69875 22.8263 5.94875 23.2175 6.36375 23.6325C6.785 24.0525 7.17625 24.3037 7.71375 24.5112C8.33125 24.75 8.98875 24.8825 9.96375 24.9275C11.3438 24.9925 11.8263 25 15 25C18.0925 25 18.5975 24.9912 20.0362 24.9275C21.0138 24.8812 21.6725 24.75 22.2825 24.5138C22.8237 24.3025 23.2175 24.0513 23.6325 23.6362C24.0538 23.215 24.305 22.8238 24.5125 22.2863C24.75 21.67 24.8825 21.0112 24.9275 20.0362C24.9925 18.6562 25 18.1737 25 15C25 11.9075 24.9912 11.4025 24.9275 9.96375C24.8812 8.98625 24.75 8.32625 24.5125 7.71625C24.3241 7.20625 24.0238 6.74495 23.6337 6.36625C23.2559 5.97481 22.7944 5.67396 22.2837 5.48625C21.6712 5.24875 21.0138 5.1175 20.0362 5.0725C18.6562 5.0075 18.1737 5 15 5ZM15 2.5C18.3962 2.5 18.82 2.5125 20.1525 2.575C21.4837 2.6375 22.39 2.84625 23.1875 3.15625C24.0125 3.47375 24.7075 3.90375 25.4025 4.5975C26.0381 5.22237 26.5299 5.97824 26.8438 6.8125C27.1525 7.60875 27.3625 8.51625 27.425 9.8475C27.4838 11.18 27.5 11.6038 27.5 15C27.5 18.3962 27.4875 18.82 27.425 20.1525C27.3625 21.4837 27.1525 22.39 26.8438 23.1875C26.5308 24.0222 26.0389 24.7783 25.4025 25.4025C24.7775 26.0379 24.0216 26.5297 23.1875 26.8438C22.3912 27.1525 21.4837 27.3625 20.1525 27.425C18.82 27.4838 18.3962 27.5 15 27.5C11.6038 27.5 11.18 27.4875 9.8475 27.425C8.51625 27.3625 7.61 27.1525 6.8125 26.8438C5.97791 26.5306 5.22191 26.0387 4.5975 25.4025C3.96176 24.7777 3.46991 24.0218 3.15625 23.1875C2.84625 22.3912 2.6375 21.4837 2.575 20.1525C2.51625 18.82 2.5 18.3962 2.5 15C2.5 11.6038 2.5125 11.18 2.575 9.8475C2.6375 8.515 2.84625 7.61 3.15625 6.8125C3.46905 5.97772 3.961 5.22165 4.5975 4.5975C5.22209 3.96154 5.97804 3.46966 6.8125 3.15625C7.61 2.84625 8.515 2.6375 9.8475 2.575C11.18 2.51625 11.6038 2.5 15 2.5Z"/>
    </symbol>

    <symbol id="arrow-right" viewBox="0 0 11 18">
        <path d="M2 16L9 9L2 2" stroke-width="3" stroke-linecap="round" stroke-linejoin="round"/>
    </symbol>


    <symbol id="close" viewBox="0 0 20 20">
        <path d="M5 5L15 15" stroke-width="1.66667" stroke-linecap="round" stroke-linejoin="round"/>
        <path d="M5 15L15 5" stroke-width="1.66667" stroke-linecap="round" stroke-linejoin="round"/>
    </symbol>

    <symbol id="burger" viewBox="0 0 24 24">
        <path d="M3 12H21" stroke-width="2" stroke-linecap="round" stroke-linejoin="round"/>
        <path d="M3 6H21" stroke-width="2" stroke-linecap="round" stroke-linejoin="round"/>
        <path d="M3 18H21" stroke-width="2" stroke-linecap="round" stroke-linejoin="round"/>
    </symbol>

</svg>